<?xml version="1.0" encoding="utf-8"?>
<!-- Generator: Adobe Illustrator 15.0.0, SVG Export Plug-In . SVG Version: 6.00 Build 0)  -->
<!DOCTYPE svg PUBLIC "-//W3C//DTD SVG 1.1//EN" "http://www.w3.org/Graphics/SVG/1.1/DTD/svg11.dtd">
<svg version="1.1" id="Layer_1" xmlns="http://www.w3.org/2000/svg" xmlns:xlink="http://www.w3.org/1999/xlink" x="0px" y="0px"
	 width="400px" height="400px" viewBox="0 0 400 400" enable-background="new 0 0 400 400" xml:space="preserve">
<circle fill="#253746" cx="199.08" cy="202.666" r="180.666"/>
<path fill="#253746" d="M199.089,396.354c-108.391,0-196.57-88.176-196.57-196.563C2.519,91.407,90.698,3.23,199.089,3.23
	c99.922,0,183.861,74.757,195.252,173.897c0.86,7.532,1.301,15.158,1.301,22.663c0,4.724-0.171,9.511-0.509,14.233
	c-3.363,46.992-23.605,91.285-57.006,124.707c-33.392,33.416-77.65,53.696-124.63,57.109c-4.638,0.313-9.106,0.482-13.345,0.514
	H199.089L199.089,396.354z M199.089,24.737c-96.531,0-175.064,78.528-175.064,175.053c0,96.526,78.533,175.058,175.064,175.058
	h0.992c3.733-0.021,7.771-0.181,11.916-0.459c85.995-6.244,155.523-75.85,161.684-161.9c0.304-4.215,0.457-8.485,0.457-12.695
	c0-6.691-0.392-13.49-1.162-20.212C362.836,91.305,288.08,24.737,199.089,24.737"/>
<path fill="#FFFFFF" d="M200.082,49.604c32.564,0,58.973,26.398,58.973,58.971c0,32.565-26.406,58.963-58.973,58.963
	c-32.567,0-58.972-26.398-58.972-58.963C141.111,76.002,167.516,49.604,200.082,49.604 M306.227,278.377
	c0-54.699-47.521-99.042-106.145-99.042c-58.621,0-106.149,44.343-106.149,99.042c0,15.699,3.933,30.541,10.905,43.721
	c30.727,2.813,62.583,4.299,95.244,4.299c32.659,0,64.514-1.486,95.246-4.299C302.297,308.918,306.227,294.076,306.227,278.377"/>
</svg>
